<svg width="100" height="100" viewBox="0 0 100 100" xmlns="http://www.w3.org/2000/svg">
  <defs>
    <pattern id="vintage" x="0" y="0" width="50" height="50" patternUnits="userSpaceOnUse">
      <!-- Decorative circles -->
      <circle cx="25" cy="25" r="1" fill="currentColor" opacity="0.3"/>
      <circle cx="0" cy="0" r="1" fill="currentColor" opacity="0.3"/>
      <circle cx="0" cy="50" r="1" fill="currentColor" opacity="0.3"/>
      <circle cx="50" cy="0" r="1" fill="currentColor" opacity="0.3"/>
      <circle cx="50" cy="50" r="1" fill="currentColor" opacity="0.3"/>
      
      <!-- Connecting lines -->
      <line x1="0" y1="25" x2="50" y2="25" stroke="currentColor" stroke-width="0.5" opacity="0.1"/>
      <line x1="25" y1="0" x2="25" y2="50" stroke="currentColor" stroke-width="0.5" opacity="0.1"/>
      
      <!-- Diagonal lines -->
      <line x1="0" y1="0" x2="50" y2="50" stroke="currentColor" stroke-width="0.5" opacity="0.1"/>
      <line x1="50" y1="0" x2="0" y2="50" stroke="currentColor" stroke-width="0.5" opacity="0.1"/>
      
      <!-- Corner flourishes -->
      <path d="M0,0 Q10,0 10,10" stroke="currentColor" fill="none" stroke-width="0.5" opacity="0.2"/>
      <path d="M50,0 Q40,0 40,10" stroke="currentColor" fill="none" stroke-width="0.5" opacity="0.2"/>
      <path d="M0,50 Q10,50 10,40" stroke="currentColor" fill="none" stroke-width="0.5" opacity="0.2"/>
      <path d="M50,50 Q40,50 40,40" stroke="currentColor" fill="none" stroke-width="0.5" opacity="0.2"/>
    </pattern>
  </defs>
  <rect width="100%" height="100%" fill="url(#vintage)"/>
</svg>
